<svg width="55" height="44" viewBox="0 0 55 44" fill="none" xmlns="http://www.w3.org/2000/svg">
<path d="M24.0575 5.96251C25.5875 3.31251 29.4125 3.3125 30.9425 5.9625L47.0072 33.7875C48.5372 36.4375 46.6247 39.75 43.5648 39.75H11.4352C8.37528 39.75 6.4628 36.4375 7.99278 33.7875L24.0575 5.96251Z" fill="currentColor"/>
<path d="M27.75 28.6667C26.7375 28.6667 25.9167 27.8459 25.9167 26.8333L25.9167 15.8333C25.9167 14.8208 26.7375 14 27.75 14C28.7625 14 29.5833 14.8208 29.5833 15.8333L29.5833 26.8333C29.5833 27.8459 28.7625 28.6667 27.75 28.6667Z" fill="white"/>
<path d="M25 33.25C25 31.7312 26.2312 30.5 27.75 30.5C29.2688 30.5 30.5 31.7312 30.5 33.25C30.5 34.7688 29.2688 36 27.75 36C26.2312 36 25 34.7688 25 33.25Z" fill="white"/>
</svg>
