<svg width="20" height="18" viewBox="0 0 20 18" fill="none" xmlns="http://www.w3.org/2000/svg">
<path d="M17.3463 14.0252C17.2131 14.3507 17.0652 14.6577 16.9025 14.9462C16.7397 15.2347 16.5622 15.5121 16.3699 15.7784C16.1184 16.1335 15.889 16.4367 15.6819 16.6882C15.4748 16.9398 15.2899 17.1395 15.1271 17.2874C14.8904 17.5093 14.6352 17.6795 14.3615 17.7978C14.0878 17.9162 13.8104 17.9754 13.5293 17.9754C13.3222 17.9754 13.0966 17.9458 12.8525 17.8866C12.6084 17.8274 12.3384 17.7387 12.0425 17.6203C11.7614 17.5019 11.4877 17.4169 11.2214 17.3651C10.9551 17.3133 10.7036 17.2874 10.4668 17.2874C10.2005 17.2874 9.93424 17.3133 9.66794 17.3651C9.40164 17.4169 9.12055 17.5019 8.82466 17.6203C8.52876 17.7387 8.26246 17.8311 8.02575 17.8977C7.78904 17.9643 7.58192 17.9976 7.40438 17.9976C7.13808 18.0124 6.86808 17.9606 6.59438 17.8422C6.32068 17.7239 6.04329 17.5389 5.76219 17.2874C5.59945 17.1247 5.40712 16.9139 5.1852 16.655C4.96329 16.3961 4.72658 16.0817 4.47507 15.7118C4.19397 15.3271 3.93877 14.9055 3.70945 14.4469C3.48014 13.9882 3.26932 13.5 3.07699 12.9822C2.88466 12.42 2.74041 11.8652 2.64425 11.3178C2.54808 10.7704 2.5 10.2378 2.5 9.72003C2.5 9.11345 2.56657 8.55126 2.69973 8.03345C2.83288 7.51564 3.0326 7.03483 3.2989 6.59099C3.50603 6.25071 3.74274 5.94003 4.00904 5.65893C4.27534 5.37784 4.57863 5.14113 4.9189 4.9488C5.27397 4.74167 5.63274 4.58633 5.9952 4.48277C6.35767 4.37921 6.73863 4.32003 7.13808 4.30524C7.36 4.30524 7.6152 4.33852 7.9037 4.4051C8.19219 4.47167 8.51397 4.57154 8.86904 4.70469C9.20931 4.83784 9.49411 4.9377 9.72342 5.00428C9.95274 5.07085 10.1192 5.10414 10.2227 5.10414C10.2967 5.10414 10.4594 5.06715 10.711 4.99318C10.9625 4.91921 11.3027 4.80085 11.7318 4.63811C12.1312 4.49017 12.5011 4.38661 12.8414 4.32743C13.1816 4.26825 13.4923 4.25346 13.7734 4.28304C14.5279 4.34222 15.19 4.51975 15.7596 4.81565C16.3292 5.11154 16.8063 5.53318 17.191 6.08058C16.5104 6.48003 16.0037 6.96825 15.6708 7.54524C15.3379 8.12222 15.1715 8.78057 15.1715 9.5203C15.1715 10.0973 15.2788 10.6225 15.4933 11.0959C15.7078 11.5693 16.0148 11.9984 16.4142 12.383C16.6066 12.5606 16.8063 12.7159 17.0134 12.8491C17.2205 12.9822 17.4351 13.1006 17.657 13.2041C17.6126 13.3373 17.5645 13.4741 17.5127 13.6147C17.461 13.7552 17.4055 13.8921 17.3463 14.0252Z" fill="white"/>
<path d="M13.91 0.37726C13.91 0.821098 13.825 1.25383 13.6548 1.67548C13.4847 2.09712 13.2369 2.50027 12.9114 2.88493C12.5119 3.34356 12.0792 3.69863 11.6132 3.95014C11.1471 4.20164 10.6552 4.3052 10.1374 4.26082C10.1226 4.20164 10.1152 4.14616 10.1152 4.09438C10.1152 4.0426 10.1152 3.98712 10.1152 3.92794C10.1152 3.48411 10.204 3.04028 10.3815 2.59644C10.5591 2.1526 10.818 1.74575 11.1582 1.37589C11.321 1.18356 11.5096 1.00603 11.7241 0.843287C11.9387 0.680547 12.1717 0.54 12.4232 0.421644C12.6895 0.288492 12.941 0.18863 13.1777 0.122055C13.4144 0.0554792 13.6511 0.0147945 13.8878 0C13.8878 0.0591783 13.8915 0.122054 13.8989 0.18863C13.9063 0.255206 13.91 0.318082 13.91 0.37726Z" fill="white"/>
</svg>
