<svg width="19" height="18" viewBox="0 0 19 18" fill="none" xmlns="http://www.w3.org/2000/svg">
<path d="M3.50098 7H15.501M3.50098 7V13.6001C3.50098 14.4402 3.50098 14.86 3.66447 15.1809C3.80828 15.4632 4.03758 15.6929 4.31982 15.8367C4.64038 16 5.06022 16 5.89866 16H13.1033C13.9417 16 14.361 16 14.6815 15.8367C14.9638 15.6929 15.1938 15.4632 15.3376 15.1809C15.501 14.8604 15.501 14.4411 15.501 13.6027V7M3.50098 7V6.40015C3.50098 5.56007 3.50098 5.13972 3.66447 4.81885C3.80828 4.5366 4.03758 4.3073 4.31982 4.16349C4.64069 4 5.06104 4 5.90112 4H6.50098M15.501 7V6.39768C15.501 5.55925 15.501 5.1394 15.3376 4.81885C15.1938 4.5366 14.9638 4.3073 14.6815 4.16349C14.3607 4 13.9412 4 13.1011 4H12.501M12.501 2.5V4M12.501 4H6.50098M6.50098 2.5V4" stroke="#E8E8E8" stroke-width="1.5" stroke-linecap="round" stroke-linejoin="round"/>
</svg>
