<svg width="360" height="360" viewBox="0 0 360 360" fill="none" xmlns="http://www.w3.org/2000/svg">
<g opacity="0.6" filter="url(#filter0_g_2007_6021)">
<g filter="url(#filter1_g_2007_6021)">
<path d="M178.517 4.94128L182.321 8.27127C182.677 8.58187 182.934 8.73716 183.092 8.73716C183.357 8.73716 183.489 8.45457 183.489 7.88939C183.489 7.24783 183.451 6.80994 183.375 6.57572C183.298 6.3415 183.138 6.16584 182.894 6.04873C182.695 5.95199 182.555 5.85015 182.473 5.74322C182.392 5.63121 182.351 5.48864 182.351 5.31552C182.351 4.88781 182.644 4.61286 183.23 4.49066C183.469 4.43974 183.886 4.41428 184.482 4.41428C185.251 4.41428 185.783 4.46011 186.078 4.55176C186.547 4.69433 186.781 4.96419 186.781 5.36134C186.781 5.69231 186.59 5.9418 186.208 6.10983C186.056 6.17602 185.951 6.23458 185.895 6.28549C185.839 6.33641 185.791 6.41279 185.75 6.51462C185.613 6.85068 185.541 7.48714 185.536 8.42402V10.9139C185.536 11.2958 185.539 11.8177 185.544 12.4796C185.549 13.3757 185.495 14.0224 185.383 14.4195C185.246 14.9134 184.996 15.1604 184.635 15.1604C184.477 15.1604 184.34 15.1273 184.222 15.0611C184.11 14.9949 183.922 14.8422 183.657 14.6028L179.128 10.5473C178.813 10.2621 178.55 10.1196 178.342 10.1196C178.031 10.1196 177.876 10.5498 177.876 11.4103C177.876 12.1181 177.914 12.6018 177.99 12.8615C178.072 13.1211 178.235 13.3121 178.479 13.4343C178.82 13.6023 178.991 13.8213 178.991 14.0911C178.991 14.7989 178.23 15.1528 176.707 15.1528C176.02 15.1528 175.485 15.0636 175.103 14.8854C174.726 14.7021 174.538 14.445 174.538 14.114C174.538 13.9409 174.574 13.8111 174.645 13.7245C174.716 13.638 174.877 13.5209 175.126 13.3732C175.365 13.2306 175.511 12.9786 175.561 12.6171C175.648 11.9602 175.691 11.0157 175.691 9.78352C175.691 8.46985 175.615 7.5126 175.462 6.91178C175.406 6.69283 175.335 6.5299 175.248 6.42297C175.162 6.31604 175.019 6.21421 174.821 6.11747C174.591 6.00545 174.431 5.89598 174.339 5.78905C174.253 5.68212 174.21 5.55228 174.21 5.39953C174.21 4.91073 174.63 4.60268 175.47 4.47538C175.755 4.43465 176.254 4.41428 176.967 4.41428C177.374 4.41428 177.669 4.44738 177.853 4.51357C178.041 4.57467 178.263 4.71724 178.517 4.94128Z" fill="#D9D9D9"/>
</g>
<g filter="url(#filter2_g_2007_6021)">
<path d="M180.633 355.639C180.109 355.639 179.421 355.509 178.571 355.25C178.469 355.219 178.388 355.204 178.326 355.204C178.276 355.204 178.123 355.25 177.868 355.341C177.787 355.372 177.7 355.387 177.608 355.387C177.267 355.387 176.908 355.117 176.532 354.578C176.15 354.038 175.959 353.524 175.959 353.035C175.959 352.75 176.045 352.508 176.218 352.309C176.386 352.116 176.593 352.019 176.837 352.019C177.041 352.019 177.206 352.06 177.334 352.141C177.461 352.223 177.741 352.464 178.174 352.867C178.785 353.437 179.386 353.722 179.976 353.722C180.261 353.722 180.49 353.653 180.664 353.516C180.832 353.378 180.916 353.198 180.916 352.974C180.916 352.531 180.526 352.197 179.747 351.973C178.693 351.663 178.018 351.436 177.723 351.293C176.425 350.662 175.775 349.733 175.775 348.506C175.775 347.421 176.218 346.535 177.104 345.848C178.011 345.145 179.195 344.794 180.656 344.794C181.308 344.794 181.995 344.87 182.718 345.023C183.441 345.181 183.963 345.364 184.284 345.573C184.528 345.736 184.75 346.09 184.948 346.634C185.142 347.184 185.238 347.719 185.238 348.238C185.238 348.488 185.188 348.676 185.086 348.804C184.958 348.966 184.798 349.048 184.605 349.048C184.411 349.048 184.225 348.949 184.047 348.75C183.94 348.638 183.688 348.279 183.291 347.673C183.102 347.388 182.805 347.151 182.397 346.963C181.985 346.774 181.56 346.68 181.122 346.68C180.745 346.68 180.439 346.749 180.205 346.886C179.971 347.029 179.854 347.21 179.854 347.429C179.854 347.632 179.946 347.808 180.129 347.956C180.312 348.103 180.61 348.241 181.022 348.368C181.751 348.597 182.306 348.806 182.687 348.994C183.069 349.188 183.426 349.43 183.757 349.72C184.561 350.433 184.964 351.242 184.964 352.149C184.964 352.597 184.859 353.032 184.65 353.455C184.442 353.883 184.146 354.252 183.764 354.562C182.909 355.28 181.865 355.639 180.633 355.639Z" fill="#D9D9D9"/>
</g>
<g filter="url(#filter3_g_2007_6021)">
<path d="M7.28602 181.542L6.75139 181.763C6.44079 181.901 6.23458 182.071 6.13274 182.275C5.93926 182.641 5.69485 182.825 5.39953 182.825C4.74779 182.825 4.42192 181.847 4.42192 179.892C4.42192 178.914 4.50084 178.171 4.65868 177.662C4.71469 177.489 4.8038 177.351 4.926 177.249C5.0482 177.142 5.18313 177.089 5.33079 177.089C5.45809 177.089 5.55483 177.114 5.62102 177.165C5.68722 177.211 5.81705 177.344 6.01054 177.562C6.11747 177.69 6.22949 177.753 6.3466 177.753C6.52481 177.753 6.82013 177.657 7.23256 177.463L8.16434 177.028C8.58696 176.829 8.85682 176.689 8.97393 176.608C9.08595 176.521 9.14196 176.424 9.14196 176.318C9.14196 176.2 9.07577 176.101 8.94338 176.02C8.811 175.933 8.55132 175.824 8.16434 175.691L7.09508 175.325C6.78958 175.223 6.56045 175.172 6.4077 175.172C6.20403 175.172 6.0691 175.279 6.0029 175.493C5.86543 175.92 5.62102 176.134 5.26969 176.134C4.96419 176.134 4.74524 175.969 4.61286 175.638C4.48047 175.307 4.41428 174.762 4.41428 174.003C4.41428 173.509 4.47029 173.125 4.58231 172.85C4.73506 172.468 4.97946 172.277 5.31552 172.277C5.46318 172.277 5.59047 172.313 5.6974 172.384C5.80433 172.45 5.94689 172.588 6.1251 172.797C6.24221 172.934 6.36696 173.041 6.49935 173.117C6.63173 173.189 6.90414 173.301 7.31657 173.453L10.8681 174.79C12.5229 175.457 13.5081 175.859 13.8238 175.997C14.1395 176.134 14.4221 176.277 14.6716 176.424C14.8549 176.536 14.9822 176.661 15.0535 176.799C15.1298 176.936 15.168 177.119 15.168 177.349C15.168 177.654 15.1018 177.901 14.9694 178.089C14.8371 178.273 14.6181 178.428 14.3126 178.555L10.7229 180.068C10.5244 180.149 10.3996 180.21 10.3487 180.251C10.2978 180.292 10.2723 180.348 10.2723 180.419C10.2723 180.526 10.336 180.617 10.4633 180.694C10.5906 180.77 10.919 180.915 11.4485 181.129L14.03 182.168C14.4985 182.361 14.8091 182.547 14.9618 182.725C15.1095 182.899 15.1833 183.163 15.1833 183.52C15.1833 183.841 15.1069 184.095 14.9542 184.284C14.8014 184.467 14.5316 184.635 14.1446 184.788L6.9576 187.598C6.66228 187.715 6.48916 187.797 6.43825 187.843C6.38224 187.883 6.29313 188.018 6.17093 188.247C6.03855 188.507 5.81451 188.637 5.49882 188.637C4.78089 188.637 4.42192 187.746 4.42192 185.964C4.42192 185.052 4.48557 184.393 4.61286 183.986C4.74015 183.594 4.99219 183.398 5.36898 183.398C5.48609 183.398 5.57265 183.408 5.62866 183.428C5.67958 183.448 5.79669 183.522 5.97999 183.65C6.07673 183.711 6.19639 183.741 6.33896 183.741C6.59354 183.741 7.12308 183.571 7.92758 183.23L8.66079 182.916C8.96629 182.784 9.15214 182.697 9.21833 182.657C9.27943 182.611 9.30999 182.547 9.30999 182.466C9.30999 182.267 9.02739 182.064 8.46221 181.855L7.59152 181.542C7.53042 181.516 7.48205 181.503 7.44641 181.503C7.40568 181.503 7.35221 181.516 7.28602 181.542Z" fill="#D9D9D9"/>
</g>
<g filter="url(#filter4_g_2007_6021)">
<path d="M355.425 176.982L355.425 180.908C355.425 181.702 355.441 182.28 355.471 182.641C355.507 183.008 355.576 183.364 355.677 183.711C355.708 183.818 355.723 183.902 355.723 183.963C355.723 184.228 355.581 184.462 355.295 184.665C354.832 185.001 354.272 185.17 353.615 185.17C353.284 185.17 353.022 185.098 352.829 184.956C352.64 184.818 352.546 184.627 352.546 184.383C352.546 184.215 352.579 184.082 352.645 183.986C352.717 183.894 352.872 183.769 353.111 183.611C353.452 183.387 353.679 183.102 353.791 182.756C353.908 182.415 353.967 181.852 353.967 181.068C353.967 180.483 353.862 180.126 353.653 179.999C353.541 179.933 353.391 179.892 353.203 179.877C353.014 179.866 352.533 179.861 351.759 179.861C351.454 179.861 351.263 179.912 351.186 180.014C351.115 180.116 351.08 180.383 351.08 180.816C351.08 181.03 351.123 181.185 351.209 181.282C351.301 181.379 351.461 181.44 351.691 181.465C351.986 181.501 352.187 181.537 352.294 181.572C352.406 181.613 352.503 181.684 352.584 181.786C352.676 181.893 352.722 182.018 352.722 182.16C352.722 182.369 352.622 182.547 352.424 182.695C352.276 182.802 352.014 182.891 351.637 182.962C351.265 183.039 350.876 183.077 350.469 183.077C349.664 183.077 349.005 182.952 348.49 182.703C348.21 182.565 348.07 182.356 348.07 182.076C348.07 181.903 348.114 181.784 348.2 181.717C348.292 181.651 348.478 181.6 348.758 181.565C349.333 181.488 349.621 181.152 349.621 180.556C349.621 180.327 349.547 180.169 349.399 180.083C349.257 180.001 348.989 179.961 348.597 179.961C348.358 179.961 348.047 179.976 347.666 180.006C347.289 180.042 347.039 180.078 346.917 180.113C346.764 180.154 346.657 180.279 346.596 180.488C346.54 180.702 346.512 181.055 346.512 181.549C346.512 182.313 346.609 182.888 346.802 183.275C347.001 183.662 347.357 183.978 347.872 184.222C348.167 184.365 348.366 184.492 348.467 184.604C348.569 184.721 348.62 184.872 348.62 185.055C348.62 185.269 348.526 185.444 348.338 185.582C348.154 185.725 347.923 185.796 347.643 185.796C347.337 185.796 346.955 185.717 346.497 185.559C346.039 185.401 345.631 185.208 345.275 184.979C345.102 184.861 344.987 184.765 344.931 184.688C344.87 184.612 344.84 184.515 344.84 184.398C344.84 184.301 344.855 184.161 344.885 183.978C344.947 183.652 344.985 183.217 345 182.672L345 176.195C345 175.936 345.056 175.735 345.168 175.592C345.285 175.449 345.448 175.378 345.657 175.378C345.804 175.378 345.911 175.409 345.978 175.47C346.044 175.531 346.128 175.671 346.23 175.89C346.296 176.043 346.377 176.155 346.474 176.226C346.571 176.302 346.713 176.361 346.902 176.402C347.671 176.57 348.707 176.654 350.01 176.654C351.976 176.654 353.216 176.531 353.73 176.287C353.832 176.236 353.903 176.18 353.944 176.119C353.984 176.058 354.033 175.931 354.089 175.737C354.175 175.447 354.369 175.302 354.669 175.302C354.832 175.302 354.977 175.35 355.105 175.447C355.232 175.544 355.316 175.671 355.357 175.829C355.402 176.027 355.425 176.412 355.425 176.982Z" fill="#D9D9D9"/>
</g>
</g>
<defs>
<filter id="filter0_g_2007_6021" x="0.982857" y="0.982857" width="358.034" height="358.034" filterUnits="userSpaceOnUse" color-interpolation-filters="sRGB">
<feFlood flood-opacity="0" result="BackgroundImageFix"/>
<feBlend mode="normal" in="SourceGraphic" in2="BackgroundImageFix" result="shape"/>
<feTurbulence type="fractalNoise" baseFrequency="1.9886363744735718 1.9886363744735718" numOctaves="3" seed="9422" />
<feDisplacementMap in="shape" scale="6.0342864990234375" xChannelSelector="R" yChannelSelector="G" result="displacedImage" width="100%" height="100%" />
<feMerge result="effect1_texture_2007_6021">
<feMergeNode in="displacedImage"/>
</feMerge>
</filter>
<filter id="filter1_g_2007_6021" x="173.546" y="3.75103" width="13.8981" height="12.0726" filterUnits="userSpaceOnUse" color-interpolation-filters="sRGB">
<feFlood flood-opacity="0" result="BackgroundImageFix"/>
<feBlend mode="normal" in="SourceGraphic" in2="BackgroundImageFix" result="shape"/>
<feTurbulence type="fractalNoise" baseFrequency="12.06132984161377 12.06132984161377" numOctaves="3" seed="6145" />
<feDisplacementMap in="shape" scale="1.3265535831451416" xChannelSelector="R" yChannelSelector="G" result="displacedImage" width="100%" height="100%" />
<feMerge result="effect1_texture_2007_6021">
<feMergeNode in="displacedImage"/>
</feMerge>
</filter>
<filter id="filter2_g_2007_6021" x="175.112" y="344.13" width="10.7897" height="12.172" filterUnits="userSpaceOnUse" color-interpolation-filters="sRGB">
<feFlood flood-opacity="0" result="BackgroundImageFix"/>
<feBlend mode="normal" in="SourceGraphic" in2="BackgroundImageFix" result="shape"/>
<feTurbulence type="fractalNoise" baseFrequency="12.06132984161377 12.06132984161377" numOctaves="3" seed="6145" />
<feDisplacementMap in="shape" scale="1.3265535831451416" xChannelSelector="R" yChannelSelector="G" result="displacedImage" width="100%" height="100%" />
<feMerge result="effect1_texture_2007_6021">
<feMergeNode in="displacedImage"/>
</feMerge>
</filter>
<filter id="filter3_g_2007_6021" x="3.75103" y="171.614" width="12.0956" height="17.6862" filterUnits="userSpaceOnUse" color-interpolation-filters="sRGB">
<feFlood flood-opacity="0" result="BackgroundImageFix"/>
<feBlend mode="normal" in="SourceGraphic" in2="BackgroundImageFix" result="shape"/>
<feTurbulence type="fractalNoise" baseFrequency="12.06132984161377 12.06132984161377" numOctaves="3" seed="6145" />
<feDisplacementMap in="shape" scale="1.3265535831451416" xChannelSelector="R" yChannelSelector="G" result="displacedImage" width="100%" height="100%" />
<feMerge result="effect1_texture_2007_6021">
<feMergeNode in="displacedImage"/>
</feMerge>
</filter>
<filter id="filter4_g_2007_6021" x="344.176" y="174.638" width="12.2101" height="11.8207" filterUnits="userSpaceOnUse" color-interpolation-filters="sRGB">
<feFlood flood-opacity="0" result="BackgroundImageFix"/>
<feBlend mode="normal" in="SourceGraphic" in2="BackgroundImageFix" result="shape"/>
<feTurbulence type="fractalNoise" baseFrequency="12.06132984161377 12.06132984161377" numOctaves="3" seed="6145" />
<feDisplacementMap in="shape" scale="1.3265535831451416" xChannelSelector="R" yChannelSelector="G" result="displacedImage" width="100%" height="100%" />
<feMerge result="effect1_texture_2007_6021">
<feMergeNode in="displacedImage"/>
</feMerge>
</filter>
</defs>
</svg>
