<svg width="20" height="21" viewBox="0 0 20 21" fill="none" xmlns="http://www.w3.org/2000/svg">
<path d="M13.5774 3.24408C13.9028 2.91864 14.4305 2.91864 14.7559 3.24408L17.2559 5.74408C17.5814 6.06951 17.5814 6.59715 17.2559 6.92259L9.75592 14.4226C9.59964 14.5789 9.38768 14.6667 9.16667 14.6667H6.66667C6.20643 14.6667 5.83333 14.2936 5.83333 13.8333V11.3333C5.83333 11.1123 5.92113 10.9004 6.07741 10.7441L13.5774 3.24408ZM7.5 11.6785V13H8.82149L15.4882 6.33333L14.1667 5.01184L7.5 11.6785ZM2.5 6.33333C2.5 5.41286 3.24619 4.66667 4.16667 4.66667H8.33333C8.79357 4.66667 9.16667 5.03976 9.16667 5.5C9.16667 5.96024 8.79357 6.33333 8.33333 6.33333H4.16667V16.3333H14.1667V12.1667C14.1667 11.7064 14.5398 11.3333 15 11.3333C15.4602 11.3333 15.8333 11.7064 15.8333 12.1667V16.3333C15.8333 17.2538 15.0871 18 14.1667 18H4.16667C3.24619 18 2.5 17.2538 2.5 16.3333V6.33333Z" fill="#676767"/>
</svg>
