<svg width="33" height="33" viewBox="0 0 33 33" fill="none" xmlns="http://www.w3.org/2000/svg">
<g clip-path="url(#clip0_421_673)">
<path d="M16.7655 17.4325C17.1337 17.4325 17.4322 17.134 17.4322 16.7658C17.4322 16.3976 17.1337 16.0991 16.7655 16.0991C16.3974 16.0991 16.0989 16.3976 16.0989 16.7658C16.0989 17.134 16.3974 17.4325 16.7655 17.4325Z" fill="#B6B6B6" stroke="#B6B6B6" stroke-width="2.72878" stroke-linecap="round" stroke-linejoin="round"/>
<path d="M16.7652 26.0988C21.9199 26.0988 26.0986 21.9201 26.0986 16.7655C26.0986 11.6108 21.9199 7.43213 16.7652 7.43213C11.6106 7.43213 7.43188 11.6108 7.43188 16.7655C7.43188 21.9201 11.6106 26.0988 16.7652 26.0988Z" stroke="#B6B6B6" stroke-width="2.72878" stroke-linecap="round" stroke-linejoin="round"/>
<path d="M16.7651 4.76562V7.43229" stroke="#B6B6B6" stroke-width="2.72878" stroke-linecap="round" stroke-linejoin="round"/>
<path d="M4.76489 16.7656H7.43156" stroke="#B6B6B6" stroke-width="2.72878" stroke-linecap="round" stroke-linejoin="round"/>
<path d="M16.7651 26.0991V28.7658" stroke="#B6B6B6" stroke-width="2.72878" stroke-linecap="round" stroke-linejoin="round"/>
<path d="M26.0981 16.7656H28.7648" stroke="#B6B6B6" stroke-width="2.72878" stroke-linecap="round" stroke-linejoin="round"/>
</g>
<defs>
<clipPath id="clip0_421_673">
<rect width="32" height="32" fill="white" transform="translate(0.765625 0.765625)"/>
</clipPath>
</defs>
</svg>
