<svg width="25" height="26" viewBox="0 0 25 26" fill="none" xmlns="http://www.w3.org/2000/svg">
<path d="M12.5045 0.524414C13.0347 0.524414 13.4645 0.954182 13.4645 1.48438V4.23926C17.5635 4.68539 20.8173 7.94041 21.2614 12.04H24.0202C24.5503 12.0401 24.9801 12.4699 24.9801 13C24.9801 13.5301 24.5503 13.9599 24.0202 13.96H21.2614C20.8173 18.0596 17.5635 21.3136 13.4645 21.7598V24.5244C13.4645 25.0546 13.0347 25.4844 12.5045 25.4844C11.9745 25.4842 11.5446 25.0545 11.5446 24.5244V21.7607C7.44142 21.3183 4.18334 18.0625 3.73892 13.96H0.980133C0.44994 13.96 0.0201722 13.5302 0.0201721 13C0.0201721 12.4698 0.44994 12.04 0.980133 12.04H3.73892C4.18336 7.93746 7.44139 4.68068 11.5446 4.23828V1.48438C11.5446 0.95431 11.9745 0.524622 12.5045 0.524414ZM12.4997 6.10547C8.69213 6.10574 5.60515 9.19244 5.60513 13C5.60513 16.8076 8.69212 19.8943 12.4997 19.8945C16.3074 19.8945 19.3942 16.8077 19.3942 13C19.3942 9.19228 16.3074 6.10547 12.4997 6.10547ZM12.4997 11.0801C13.56 11.0801 14.4205 11.9396 14.4206 13C14.4206 14.0604 13.5601 14.9199 12.4997 14.9199C11.4395 14.9197 10.5797 14.0602 10.5797 13C10.5798 11.9398 11.4395 11.0803 12.4997 11.0801Z" fill="#B5B5B5"/>
</svg>
