<svg width="13" height="12" viewBox="0 0 13 12" fill="none" xmlns="http://www.w3.org/2000/svg">
<g filter="url(#filter0_g_3927_4747)">
<path d="M6.46875 0.617188C7.15104 0.617188 7.79427 0.713542 8.39844 0.90625C8.66927 0.994792 8.85417 1.03906 8.95312 1.03906C9.05729 1.03906 9.27604 0.979167 9.60938 0.859375C9.71875 0.822917 9.83073 0.804688 9.94531 0.804688C10.237 0.804688 10.5156 0.976562 10.7812 1.32031C11.2083 1.8724 11.4219 2.47656 11.4219 3.13281C11.4219 3.58073 11.3073 3.94271 11.0781 4.21875C10.8542 4.49479 10.5573 4.63281 10.1875 4.63281C9.88542 4.63281 9.58854 4.52344 9.29688 4.30469C9.20833 4.23698 8.99219 3.99219 8.64844 3.57031C8.07552 2.86719 7.41667 2.51562 6.67188 2.51562C5.99479 2.51562 5.45573 2.76302 5.05469 3.25781C4.65885 3.7526 4.46094 4.41927 4.46094 5.25781C4.46094 6.5026 4.77865 7.5625 5.41406 8.4375C5.65365 8.75521 5.9401 9.01042 6.27344 9.20312C6.60677 9.39062 6.9375 9.48438 7.26562 9.48438C7.53646 9.48438 7.75781 9.39583 7.92969 9.21875C8.10677 9.03646 8.19531 8.80469 8.19531 8.52344C8.19531 8.27344 8.1224 8.09635 7.97656 7.99219C7.91927 7.95052 7.86458 7.92708 7.8125 7.92188C7.76562 7.91146 7.61719 7.90625 7.36719 7.90625C7.14323 7.90625 6.95573 7.83594 6.80469 7.69531C6.65885 7.54948 6.58594 7.36719 6.58594 7.14844C6.58594 6.71615 6.8724 6.40885 7.44531 6.22656C8.07552 6.02865 8.80208 5.92969 9.625 5.92969C10.5052 5.92969 11.2448 6.02083 11.8438 6.20312C12.4115 6.38021 12.6953 6.70052 12.6953 7.16406C12.6953 7.35156 12.6302 7.51562 12.5 7.65625C12.3698 7.79167 12.2005 7.8724 11.9922 7.89844C11.8099 7.92448 11.6901 7.96615 11.6328 8.02344C11.5807 8.07552 11.526 8.20833 11.4688 8.42188C11.2448 9.25 10.8073 9.94271 10.1562 10.5C9.70833 10.8802 9.16667 11.1771 8.53125 11.3906C7.90104 11.6042 7.23698 11.7109 6.53906 11.7109C5.39844 11.7109 4.35156 11.4479 3.39844 10.9219C2.41927 10.3854 1.67448 9.63542 1.16406 8.67188C0.736979 7.86979 0.523438 7.0026 0.523438 6.07031C0.523438 5.1276 0.778646 4.23177 1.28906 3.38281C1.83073 2.47135 2.58854 1.76823 3.5625 1.27344C4.41146 0.835938 5.38021 0.617188 6.46875 0.617188Z" fill="#E2FF00"/>
</g>
<defs>
<filter id="filter0_g_3927_4747" x="0.523438" y="0.617188" width="12.1719" height="11.0938" filterUnits="userSpaceOnUse" color-interpolation-filters="sRGB">
<feFlood flood-opacity="0" result="BackgroundImageFix"/>
<feBlend mode="normal" in="SourceGraphic" in2="BackgroundImageFix" result="shape"/>
<feTurbulence type="fractalNoise" baseFrequency="1.4060091972351074 1.4060091972351074" numOctaves="3" seed="6145" />
<feDisplacementMap in="shape" scale="0" xChannelSelector="R" yChannelSelector="G" result="displacedImage" width="100%" height="100%" />
<feMerge result="effect1_texture_3927_4747">
<feMergeNode in="displacedImage"/>
</feMerge>
</filter>
</defs>
</svg>
