<svg width="21" height="13" viewBox="0 0 21 13" fill="none" xmlns="http://www.w3.org/2000/svg">
<path d="M20.4825 5.78758H10.6884V8.2084H14.761C13.8211 9.04887 12.2548 9.58917 10.5406 9.58917C7.67182 9.58917 5.62841 8.24409 5.62841 6.35871C5.62841 4.47333 7.68931 3.09417 10.5914 3.09417C12.6348 3.09417 14.6306 3.86812 15.3557 4.96333H20.5C19.5443 2.12065 15.7835 0 10.4754 0C4.60432 0 0.5 2.62526 0.5 6.34248C0.5 10.0597 4.17655 12.5 9.32086 12.5C12.1912 12.5 14.4827 11.6238 15.9329 10.2122V12.1479H20.4841V5.7892L20.4825 5.78758Z" fill="#E2FF00"/>
</svg>
