<svg width="25" height="24" viewBox="0 0 25 24" fill="none" xmlns="http://www.w3.org/2000/svg">
<path d="M2.5 20.0006H4.5M4.5 20.0006H10.5M4.5 20.0006V11.4527C4.5 10.9184 4.5 10.6511 4.56497 10.4024C4.62255 10.1821 4.71779 9.97356 4.8457 9.78513C4.99004 9.5725 5.19064 9.39618 5.59277 9.04432L10.3944 4.84293C11.1398 4.19063 11.5126 3.86446 11.9324 3.74031C12.3026 3.63083 12.6972 3.63083 13.0674 3.74031C13.4875 3.86455 13.8608 4.19103 14.6074 4.84431L19.4074 9.04431C19.8095 9.39617 20.0102 9.5725 20.1546 9.78513C20.2825 9.97356 20.377 10.1821 20.4346 10.4024C20.4995 10.6511 20.5 10.9184 20.5 11.4527V20.0006M10.5 20.0006H14.5M10.5 20.0006V16.0006C10.5 14.896 11.3954 14.0006 12.5 14.0006C13.6046 14.0006 14.5 14.896 14.5 16.0006V20.0006M14.5 20.0006H20.5M20.5 20.0006H22.5" stroke="#B5B5B5" stroke-width="2" stroke-linecap="round" stroke-linejoin="round"/>
</svg>
