<svg width="24" height="24" viewBox="0 0 24 24" fill="none" xmlns="http://www.w3.org/2000/svg">
<path d="M8.68402 3.05132C8.88928 2.98289 9.11121 2.98289 9.31647 3.05132L15.0002 4.94591L19.3678 3.49006C20.6629 3.05837 22.0002 4.02231 22.0002 5.38743V17.2792C22.0002 18.1401 21.4494 18.9044 20.6327 19.1766L15.3165 20.9487C15.1112 21.0171 14.8893 21.0171 14.684 20.9487L9.00024 19.0541L4.6327 20.5099C3.33764 20.9416 2.00024 19.9777 2.00024 18.6126V6.72076C2.00024 5.8599 2.5511 5.09562 3.36779 4.82339L8.68402 3.05132ZM10.0002 17.2792L14.0002 18.6126V6.72076L10.0002 5.38743V17.2792ZM8.00024 5.38743L4.00024 6.72076V18.6126L8.00024 17.2792V5.38743ZM16.0002 6.72076V18.6126L20.0002 17.2792V5.38743L16.0002 6.72076Z" fill="currentColor"/>
</svg>
