<svg width="13" height="14" viewBox="0 0 13 14" fill="none" xmlns="http://www.w3.org/2000/svg">
<path d="M4.59766 5.04908C4.71152 4.69822 4.9201 4.38597 5.20052 4.14632C5.48094 3.90667 5.82253 3.74919 6.18685 3.69139C6.55117 3.63358 6.92415 3.6776 7.26497 3.81868C7.6058 3.95977 7.90097 4.1925 8.11784 4.49089C8.33471 4.78927 8.46459 5.14171 8.49358 5.50944C8.52257 5.87717 8.44923 6.24586 8.28179 6.57454C8.11436 6.90323 7.85958 7.17899 7.54507 7.37174C7.23056 7.5645 6.86888 7.66651 6.5 7.66651V8.33349M6.5 13C3.18629 13 0.5 10.3137 0.5 7C0.5 3.68629 3.18629 1 6.5 1C9.81371 1 12.5 3.68629 12.5 7C12.5 10.3137 9.81371 13 6.5 13ZM6.5332 10.3333V10.4L6.4668 10.4001V10.3333H6.5332Z" stroke="#B5B5B5" stroke-linecap="round" stroke-linejoin="round"/>
</svg>
