<svg width="20" height="20" viewBox="0 0 20 20" fill="none" xmlns="http://www.w3.org/2000/svg">
<path d="M10.0007 3.33317C11.3737 3.33317 12.5007 4.46007 12.5007 5.83317V8.33317H7.50065V5.83317C7.50065 4.46007 8.62755 3.33317 10.0007 3.33317ZM14.1673 8.33317V5.83317C14.1673 3.5396 12.2942 1.6665 10.0007 1.6665C7.70708 1.6665 5.83398 3.5396 5.83398 5.83317V8.33317H5.00065C4.08018 8.33317 3.33398 9.07936 3.33398 9.99984V16.6665C3.33398 17.587 4.08018 18.3332 5.00065 18.3332H15.0007C15.9211 18.3332 16.6673 17.587 16.6673 16.6665V9.99984C16.6673 9.07936 15.9211 8.33317 15.0007 8.33317H14.1673ZM5.00065 9.99984H15.0007V16.6665H5.00065V9.99984Z" fill="#B5B5B5"/>
</svg>
