<svg width="22" height="22" viewBox="0 0 22 22" fill="none" xmlns="http://www.w3.org/2000/svg">
<path d="M10.9993 3.66659C9.48894 3.66659 8.24935 4.90618 8.24935 6.41658V9.16658H16.4993C17.5119 9.16658 18.3327 9.9874 18.3327 10.9999V18.3333C18.3327 19.3458 17.5119 20.1666 16.4993 20.1666H5.49935C4.48683 20.1666 3.66602 19.3458 3.66602 18.3333V10.9999C3.66602 9.9874 4.48683 9.16658 5.49935 9.16658H6.41602V6.41658C6.41602 3.89366 8.47642 1.83325 10.9993 1.83325C13.5223 1.83325 15.5827 3.89366 15.5827 6.41658C15.5827 6.92285 15.1723 7.33325 14.666 7.33325C14.1598 7.33325 13.7493 6.92285 13.7493 6.41658C13.7493 4.90618 12.5098 3.66659 10.9993 3.66659ZM5.49935 10.9999V18.3333H16.4993V10.9999H5.49935Z" fill="#E2FF00"/>
</svg>
