<svg width="367" height="161" viewBox="0 0 367 161" fill="none" xmlns="http://www.w3.org/2000/svg">
<g filter="url(#filter0_g_2007_6019)">
<path d="M83.168 5.26172C87.6029 5.26172 91.7839 5.88802 95.7109 7.14062C97.4714 7.71615 98.6732 8.00391 99.3164 8.00391C99.9935 8.00391 101.415 7.61458 103.582 6.83594C104.293 6.59896 105.021 6.48047 105.766 6.48047C107.661 6.48047 109.473 7.59766 111.199 9.83203C113.975 13.4206 115.363 17.3477 115.363 21.6133C115.363 24.5247 114.618 26.8776 113.129 28.6719C111.673 30.4661 109.743 31.3633 107.34 31.3633C105.376 31.3633 103.447 30.6523 101.551 29.2305C100.975 28.7904 99.5703 27.1992 97.3359 24.457C93.612 19.8867 89.3294 17.6016 84.4883 17.6016C80.0872 17.6016 76.5833 19.2096 73.9766 22.4258C71.4036 25.6419 70.1172 29.9753 70.1172 35.4258C70.1172 43.5169 72.1823 50.4062 76.3125 56.0938C77.8698 58.1589 79.7318 59.8177 81.8984 61.0703C84.0651 62.2891 86.2148 62.8984 88.3477 62.8984C90.1081 62.8984 91.5469 62.3229 92.6641 61.1719C93.8151 59.987 94.3906 58.4805 94.3906 56.6523C94.3906 55.0273 93.9167 53.8763 92.9688 53.1992C92.5964 52.9284 92.2409 52.776 91.9023 52.7422C91.5977 52.6745 90.6328 52.6406 89.0078 52.6406C87.5521 52.6406 86.3333 52.1836 85.3516 51.2695C84.4036 50.3216 83.9297 49.1367 83.9297 47.7148C83.9297 44.9049 85.7917 42.9076 89.5156 41.7227C93.612 40.4362 98.3346 39.793 103.684 39.793C109.405 39.793 114.212 40.3854 118.105 41.5703C121.796 42.7214 123.641 44.8034 123.641 47.8164C123.641 49.0352 123.217 50.1016 122.371 51.0156C121.525 51.8958 120.424 52.4206 119.07 52.5898C117.885 52.7591 117.107 53.0299 116.734 53.4023C116.396 53.7409 116.04 54.6042 115.668 55.9922C114.212 61.375 111.368 65.8776 107.137 69.5C104.225 71.9714 100.704 73.901 96.5742 75.2891C92.4779 76.6771 88.1615 77.3711 83.625 77.3711C76.2109 77.3711 69.4062 75.6615 63.2109 72.2422C56.8464 68.7552 52.0052 63.8802 48.6875 57.6172C45.9115 52.4036 44.5234 46.7669 44.5234 40.707C44.5234 34.5794 46.1823 28.7565 49.5 23.2383C53.0208 17.3138 57.9466 12.7435 64.2773 9.52734C69.7956 6.68359 76.0924 5.26172 83.168 5.26172ZM146.82 9.17188L146.16 30.4492C146.092 32.9883 146.871 34.2578 148.496 34.2578C149.309 34.2578 150.104 33.6992 150.883 32.582C154.167 27.8086 158.551 25.4219 164.035 25.4219C169.418 25.4219 173.701 27.0638 176.883 30.3477C178.305 31.8034 179.303 33.5299 179.879 35.5273C180.488 37.5247 180.827 40.3854 180.895 44.1094L181.352 62.4414C181.385 64.0326 181.589 65.2005 181.961 65.9453C182.367 66.6901 183.281 67.6211 184.703 68.7383C185.685 69.5169 186.176 70.4479 186.176 71.5312C186.176 75.1875 180.658 77.0156 169.621 77.0156C159.803 77.0156 154.895 75.306 154.895 71.8867C154.895 71.3112 154.979 70.8711 155.148 70.5664C155.318 70.2617 155.91 69.4492 156.926 68.1289C158.348 66.2669 159.059 61.612 159.059 54.1641C159.059 49.6615 158.635 46.3776 157.789 44.3125C156.672 41.5026 154.674 40.0977 151.797 40.0977C149.732 40.0977 148.208 40.8424 147.227 42.332C146.516 43.4154 146.16 45.4466 146.16 48.4258V58.2266C146.397 62.5599 146.6 65.0143 146.77 65.5898C146.939 66.1654 147.717 67.2318 149.105 68.7891C149.749 69.5 150.07 70.3294 150.07 71.2773C150.07 75.1029 145.094 77.0156 135.141 77.0156C123.495 77.0156 117.672 75.0352 117.672 71.0742C117.672 70.1602 117.858 69.4661 118.23 68.9922C118.603 68.4844 119.517 67.7227 120.973 66.707C122.259 65.793 123.139 63.3385 123.613 59.3438C124.121 55.3151 124.375 48.6628 124.375 39.3867C124.375 32.1081 124.172 27.0638 123.766 24.2539C123.63 23.2044 123.376 22.4427 123.004 21.9688C122.665 21.4609 122.005 20.9531 121.023 20.4453C118.924 19.362 117.875 18.1094 117.875 16.6875C117.875 14.9948 118.671 13.6237 120.262 12.5742C121.853 11.5247 124.9 10.3906 129.402 9.17188C135.496 7.47917 140.354 6.63281 143.977 6.63281C145.94 6.63281 146.888 7.47917 146.82 9.17188ZM212.605 25.3711C218.801 25.3711 224.234 26.9792 228.906 30.1953C232.258 32.4974 234.949 35.4935 236.98 39.1836C239.079 43.043 240.129 47.0716 240.129 51.2695C240.129 58.6159 236.76 64.862 230.023 70.0078C223.591 74.9167 216.228 77.3711 207.934 77.3711C199.842 77.3711 193.292 75.069 188.281 70.4648C183.406 65.9961 180.969 60.1732 180.969 52.9961C180.969 45.0065 183.948 38.4727 189.906 33.3945C196.135 28.0456 203.702 25.3711 212.605 25.3711ZM208.543 37.1016C207.053 37.1016 205.852 37.6602 204.938 38.7773C204.057 39.8607 203.617 41.3164 203.617 43.1445C203.617 45.1758 203.99 47.9518 204.734 51.4727C205.513 54.9596 206.427 58.0573 207.477 60.7656C208.526 63.5417 210.236 64.9297 212.605 64.9297C215.618 64.9297 217.125 63.0169 217.125 59.1914C217.125 56.3477 216.736 53.1146 215.957 49.4922C215.212 45.8698 214.298 42.9245 213.215 40.6562C212.098 38.3542 210.54 37.1693 208.543 37.1016ZM256.148 25.4219C257.841 25.4219 260.6 25.7943 264.426 26.5391C265.204 26.6745 265.848 26.7422 266.355 26.7422C266.931 26.7422 268.048 26.4375 269.707 25.8281C270.486 25.5234 271.146 25.3711 271.688 25.3711C273.245 25.3711 274.819 26.3698 276.41 28.3672C277.697 29.9583 278.746 31.7018 279.559 33.5977C280.371 35.4935 280.777 37.1354 280.777 38.5234C280.777 39.8776 280.303 41.0117 279.355 41.9258C278.408 42.806 277.223 43.2461 275.801 43.2461C274.616 43.2461 273.549 42.9583 272.602 42.3828C271.688 41.8073 270.198 40.5378 268.133 38.5742C265.966 36.4753 264.172 35.4258 262.75 35.4258C261.802 35.4258 260.973 35.7812 260.262 36.4922C259.585 37.1693 259.246 37.9818 259.246 38.9297C259.246 40.5885 260.837 42.1458 264.02 43.6016C269.741 46.1745 274.125 48.9844 277.172 52.0312C279.745 54.6042 281.031 57.7526 281.031 61.4766C281.031 66.1823 278.966 70.1094 274.836 73.2578C271.281 76 266.931 77.3711 261.785 77.3711C260.465 77.3711 258.061 77.151 254.574 76.7109C251.29 76.3385 249.445 76.1523 249.039 76.1523C248.599 76.1523 248.091 76.2031 247.516 76.3047C246.534 76.4401 245.823 76.5078 245.383 76.5078C243.792 76.5078 242.539 76.1016 241.625 75.2891C240.237 74.0365 238.951 72.0729 237.766 69.3984C236.581 66.6901 235.988 64.3711 235.988 62.4414C235.988 59.3268 237.207 57.7695 239.645 57.7695C240.592 57.7695 241.456 58.0911 242.234 58.7344C243.047 59.3438 244.723 61.0026 247.262 63.7109C248.65 65.2005 249.801 66.2331 250.715 66.8086C251.629 67.3503 252.611 67.6211 253.66 67.6211C254.777 67.6211 255.674 67.3333 256.352 66.7578C257.029 66.1484 257.367 65.3529 257.367 64.3711C257.367 62.8477 256.064 61.4596 253.457 60.207C248.007 57.5326 244.062 54.7734 241.625 51.9297C239.221 49.0859 238.02 45.8021 238.02 42.0781C238.02 38.0495 239.255 34.5794 241.727 31.668C245.247 27.5039 250.055 25.4219 256.148 25.4219ZM307.867 38.7266V55.8906C307.867 57.9219 308.358 59.5807 309.34 60.8672C310.355 62.1536 311.642 62.7969 313.199 62.7969C314.52 62.7969 316.263 62.1875 318.43 60.9688C318.938 60.6641 319.445 60.5117 319.953 60.5117C320.766 60.5117 321.51 61.0026 322.188 61.9844C322.865 62.9661 323.203 64.0326 323.203 65.1836C323.203 67.2826 322.052 69.2969 319.75 71.2266C314.943 75.3229 309.12 77.3711 302.281 77.3711C296.865 77.3711 292.514 75.8477 289.23 72.8008C285.947 69.7201 284.305 65.6745 284.305 60.6641V37.2031C284.305 36.4245 284.203 35.9505 284 35.7812C283.831 35.5781 283.357 35.4766 282.578 35.4766H277.348C276.366 35.4766 275.74 35.3242 275.469 35.0195C275.198 34.681 275.062 33.9193 275.062 32.7344V30.5C275.096 29.4844 275.486 28.7396 276.23 28.2656L299.488 13.6406C300.064 13.3359 300.775 13.1836 301.621 13.1836H305.734C306.581 13.1836 307.139 13.3867 307.41 13.793C307.715 14.1654 307.867 14.9271 307.867 16.0781V22.9336C307.867 23.9492 308.02 24.6094 308.324 24.9141C308.663 25.2188 309.357 25.3711 310.406 25.3711H319.801C321.053 25.3711 321.866 25.6081 322.238 26.082C322.611 26.5221 322.797 27.487 322.797 28.9766V31.9727C322.797 33.5977 322.56 34.7318 322.086 35.375C321.612 35.9844 320.749 36.2891 319.496 36.2891H310.305C309.357 36.2891 308.714 36.4583 308.375 36.7969C308.036 37.1354 307.867 37.7786 307.867 38.7266ZM38.6719 124.852C37.3854 124.852 36.556 125.241 36.1836 126.02C35.8451 126.798 35.6758 128.609 35.6758 131.453C35.6758 135.753 35.9466 139.104 36.4883 141.508C36.6576 142.185 36.9115 142.71 37.25 143.082C37.5885 143.454 38.2318 143.911 39.1797 144.453C41.2109 145.57 42.2266 147.043 42.2266 148.871C42.2266 151.105 40.8047 152.697 37.9609 153.645C35.151 154.559 30.3776 155.016 23.6406 155.016C11.1146 155.016 4.85156 152.646 4.85156 147.906C4.85156 147.094 5.03776 146.451 5.41016 145.977C5.78255 145.469 6.62891 144.775 7.94922 143.895C9.4388 142.913 10.4375 141.762 10.9453 140.441C11.487 139.087 11.8594 136.768 12.0625 133.484C12.2318 131.081 12.3164 122.465 12.3164 107.637C12.3164 102.931 12.0794 99.7318 11.6055 98.0391C11.1315 96.3464 10.1159 95.1107 8.55859 94.332C7.06901 93.6211 6.07031 92.9779 5.5625 92.4023C5.05469 91.793 4.80078 91.0143 4.80078 90.0664C4.80078 88.8138 5.27474 87.7305 6.22266 86.8164C7.20443 85.8685 8.55859 85.1745 10.2852 84.7344C11.7409 84.362 13.7383 84.1758 16.2773 84.1758C17.3945 84.1758 20.1875 84.3451 24.6562 84.6836C25.5026 84.7513 26.8398 84.7852 28.668 84.7852C31.7148 84.7852 35.7773 84.582 40.8555 84.1758C44.0716 83.9388 46.3229 83.8203 47.6094 83.8203C54.8542 83.8203 60.8464 85.5638 65.5859 89.0508C69.8516 92.1992 71.9844 96.5664 71.9844 102.152C71.9844 105.267 71.2396 108.111 69.75 110.684C68.2604 113.223 66.2122 115.135 63.6055 116.422C62.5221 116.964 61.9805 117.607 61.9805 118.352C61.9805 119.333 62.8099 120.129 64.4688 120.738C68.0234 122.025 70.6302 123.971 72.2891 126.578C73.9479 129.185 75.1328 133.18 75.8438 138.562C76.1484 140.797 76.5885 142.253 77.1641 142.93C77.7396 143.573 79.0768 144.199 81.1758 144.809C81.819 145.012 82.3607 145.452 82.8008 146.129C83.2409 146.772 83.4609 147.5 83.4609 148.312C83.4609 149.362 83.0547 150.428 82.2422 151.512C81.4297 152.561 80.3802 153.391 79.0938 154C76.25 155.32 72.3568 155.98 67.4141 155.98C60.8125 155.98 56.0898 154.237 53.2461 150.75C51.9596 149.193 50.8594 147.229 49.9453 144.859C49.0651 142.49 48.0156 138.799 46.7969 133.789C46.0182 130.573 45.0195 128.305 43.8008 126.984C42.6159 125.664 40.9062 124.953 38.6719 124.852ZM35.7266 98.9531L35.168 110.785C35.168 110.887 35.168 111.039 35.168 111.242C35.168 112.461 35.3372 113.273 35.6758 113.68C36.0482 114.086 36.776 114.289 37.8594 114.289C40.8385 114.289 43.0052 113.527 44.3594 112.004C45.7135 110.447 46.3906 107.975 46.3906 104.59C46.3906 98.056 44.0716 94.7891 39.4336 94.7891C38.1133 94.7891 37.1823 95.0938 36.6406 95.7031C36.099 96.3125 35.7943 97.3958 35.7266 98.9531ZM103.492 106.316V133.84C103.492 139.73 105.439 142.676 109.332 142.676C110.314 142.676 111.279 142.405 112.227 141.863C113.174 141.288 113.835 140.594 114.207 139.781C114.952 138.156 115.324 134.534 115.324 128.914C115.324 123.362 115.138 119.57 114.766 117.539C114.63 116.693 114.393 116.083 114.055 115.711C113.716 115.305 113.073 114.848 112.125 114.34C110.195 113.324 109.23 112.038 109.23 110.48C109.23 108.382 110.889 106.926 114.207 106.113C120.504 104.556 126.716 103.777 132.844 103.777C136.263 103.777 137.973 105.589 137.973 109.211C137.973 109.583 137.956 110.345 137.922 111.496C137.854 113.121 137.803 115.102 137.77 117.438V139.832C137.77 140.983 138.751 142.033 140.715 142.98C142.374 143.793 143.203 144.978 143.203 146.535C143.203 149.582 139.598 151.935 132.387 153.594C128.155 154.576 124.059 155.066 120.098 155.066C118.473 155.066 117.355 154.88 116.746 154.508C116.171 154.135 115.832 153.408 115.73 152.324C115.561 150.225 114.918 149.176 113.801 149.176C113.395 149.176 113.022 149.277 112.684 149.48C112.345 149.65 111.312 150.327 109.586 151.512C106.167 153.848 102.493 155.016 98.5664 155.016C92.0664 155.016 87.4792 153.137 84.8047 149.379C82.5365 146.23 81.4023 140.932 81.4023 133.484C81.4023 130.708 81.4193 128.339 81.4531 126.375C81.4531 125.224 81.4531 124.445 81.4531 124.039C81.4531 121.128 81.1823 118.995 80.6406 117.641C80.1328 116.253 79.1849 115.169 77.7969 114.391C76.4766 113.714 75.6302 113.172 75.2578 112.766C74.9193 112.359 74.75 111.801 74.75 111.09C74.75 108.517 76.6966 106.807 80.5898 105.961C87.2253 104.505 93.8607 103.777 100.496 103.777C102.493 103.777 103.492 104.624 103.492 106.316ZM199.746 122.16L200.457 140.035C200.525 141.389 200.728 142.388 201.066 143.031C201.439 143.674 202.488 144.91 204.215 146.738C204.723 147.28 204.977 148.042 204.977 149.023C204.977 151.258 203.639 152.815 200.965 153.695C198.29 154.576 193.517 155.016 186.645 155.016C181.973 155.016 178.672 154.609 176.742 153.797C174.745 152.951 173.746 151.579 173.746 149.684C173.746 149.007 173.848 148.516 174.051 148.211C174.254 147.872 174.931 147.077 176.082 145.824C177.436 144.402 178.113 139.663 178.113 131.605C178.113 126.934 177.572 123.48 176.488 121.246C175.608 119.452 173.983 118.555 171.613 118.555C169.345 118.555 167.788 119.283 166.941 120.738C166.095 122.194 165.672 124.835 165.672 128.66V138.715C165.672 140.712 165.79 142.083 166.027 142.828C166.298 143.573 167.145 145.012 168.566 147.145C168.939 147.754 169.125 148.448 169.125 149.227C169.125 151.224 167.737 152.697 164.961 153.645C162.185 154.592 157.852 155.066 151.961 155.066C142.549 155.066 137.844 153.12 137.844 149.227C137.844 148.414 137.979 147.805 138.25 147.398C138.555 146.958 139.249 146.349 140.332 145.57C141.212 144.927 141.771 144.199 142.008 143.387C142.245 142.54 142.465 140.492 142.668 137.242C142.905 133.383 143.023 129.337 143.023 125.105C143.023 122.77 142.837 121.246 142.465 120.535C142.126 119.79 141.111 118.893 139.418 117.844C137.962 116.93 137.234 115.812 137.234 114.492C137.234 113.138 137.827 112.038 139.012 111.191C140.197 110.311 142.634 109.211 146.324 107.891C149.574 106.74 152.706 105.775 155.719 104.996C158.732 104.184 160.797 103.777 161.914 103.777C162.93 103.777 163.776 104.15 164.453 104.895C165.164 105.639 165.52 106.52 165.52 107.535C165.52 107.637 165.503 108.06 165.469 108.805C165.435 109.076 165.418 109.312 165.418 109.516C165.418 111.141 166.095 111.953 167.449 111.953C168.262 111.953 169.125 111.31 170.039 110.023C172.951 105.826 177.182 103.727 182.734 103.727C187 103.727 190.656 104.844 193.703 107.078C195.836 108.669 197.326 110.548 198.172 112.715C199.018 114.848 199.543 117.996 199.746 122.16ZM261.52 122.16L262.23 140.035C262.298 141.389 262.501 142.388 262.84 143.031C263.212 143.674 264.262 144.91 265.988 146.738C266.496 147.28 266.75 148.042 266.75 149.023C266.75 151.258 265.413 152.815 262.738 153.695C260.064 154.576 255.29 155.016 248.418 155.016C243.746 155.016 240.445 154.609 238.516 153.797C236.518 152.951 235.52 151.579 235.52 149.684C235.52 149.007 235.621 148.516 235.824 148.211C236.027 147.872 236.704 147.077 237.855 145.824C239.21 144.402 239.887 139.663 239.887 131.605C239.887 126.934 239.345 123.48 238.262 121.246C237.382 119.452 235.757 118.555 233.387 118.555C231.118 118.555 229.561 119.283 228.715 120.738C227.868 122.194 227.445 124.835 227.445 128.66V138.715C227.445 140.712 227.564 142.083 227.801 142.828C228.072 143.573 228.918 145.012 230.34 147.145C230.712 147.754 230.898 148.448 230.898 149.227C230.898 151.224 229.51 152.697 226.734 153.645C223.958 154.592 219.625 155.066 213.734 155.066C204.323 155.066 199.617 153.12 199.617 149.227C199.617 148.414 199.753 147.805 200.023 147.398C200.328 146.958 201.022 146.349 202.105 145.57C202.986 144.927 203.544 144.199 203.781 143.387C204.018 142.54 204.238 140.492 204.441 137.242C204.678 133.383 204.797 129.337 204.797 125.105C204.797 122.77 204.611 121.246 204.238 120.535C203.9 119.79 202.884 118.893 201.191 117.844C199.736 116.93 199.008 115.812 199.008 114.492C199.008 113.138 199.6 112.038 200.785 111.191C201.97 110.311 204.408 109.211 208.098 107.891C211.348 106.74 214.479 105.775 217.492 104.996C220.505 104.184 222.57 103.777 223.688 103.777C224.703 103.777 225.549 104.15 226.227 104.895C226.938 105.639 227.293 106.52 227.293 107.535C227.293 107.637 227.276 108.06 227.242 108.805C227.208 109.076 227.191 109.312 227.191 109.516C227.191 111.141 227.868 111.953 229.223 111.953C230.035 111.953 230.898 111.31 231.812 110.023C234.724 105.826 238.956 103.727 244.508 103.727C248.773 103.727 252.43 104.844 255.477 107.078C257.609 108.669 259.099 110.548 259.945 112.715C260.792 114.848 261.316 117.996 261.52 122.16ZM308.617 131.25H284.75C283.701 131.25 283.176 131.707 283.176 132.621C283.176 134.822 284.361 136.904 286.73 138.867C289.134 140.797 291.707 141.762 294.449 141.762C296.074 141.762 297.868 141.457 299.832 140.848C301.829 140.204 303.471 139.426 304.758 138.512C305.909 137.699 306.823 137.293 307.5 137.293C308.38 137.293 309.243 137.835 310.09 138.918C310.936 140.001 311.359 141.118 311.359 142.27C311.359 144.707 309.836 147.06 306.789 149.328C301.406 153.357 295.194 155.371 288.152 155.371C281.043 155.371 275.085 153.306 270.277 149.176C267.941 147.145 266.012 144.69 264.488 141.812C262.491 137.987 261.492 133.958 261.492 129.727C261.492 124.039 263.219 118.927 266.672 114.391C269.651 110.464 273.443 107.535 278.047 105.605C281.5 104.15 285.241 103.422 289.27 103.422C295.702 103.422 301.169 105.25 305.672 108.906C307.94 110.734 309.768 112.901 311.156 115.406C312.747 118.25 313.543 121.026 313.543 123.734C313.543 125.935 313.086 127.746 312.172 129.168C311.258 130.556 310.073 131.25 308.617 131.25ZM286.07 121.754H291.199C293.366 121.754 294.449 120.755 294.449 118.758C294.449 116.93 293.924 115.44 292.875 114.289C291.826 113.138 290.454 112.562 288.762 112.562C286.866 112.562 285.376 113.307 284.293 114.797C283.277 116.185 282.77 117.59 282.77 119.012C282.77 120.027 283.007 120.738 283.48 121.145C283.988 121.551 284.852 121.754 286.07 121.754ZM332.559 103.727C334.353 103.727 335.436 103.98 335.809 104.488C336.215 104.996 336.57 106.621 336.875 109.363C337.044 110.853 337.569 111.598 338.449 111.598C339.126 111.598 339.77 111.107 340.379 110.125C343.087 105.893 346.625 103.777 350.992 103.777C354.073 103.777 356.595 104.776 358.559 106.773C359.507 107.755 360.285 109.025 360.895 110.582C361.504 112.105 361.809 113.578 361.809 115C361.809 116.591 361.436 118.233 360.691 119.926C359.947 121.585 358.982 122.956 357.797 124.039C355.63 126.104 352.973 127.137 349.824 127.137C348.098 127.137 346.642 126.832 345.457 126.223C344.306 125.613 342.783 124.378 340.887 122.516C340.176 121.805 339.516 121.449 338.906 121.449C337.958 121.449 337.332 121.991 337.027 123.074C336.757 124.124 336.621 126.358 336.621 129.777C336.621 134.889 336.807 138.376 337.18 140.238C337.417 141.254 337.738 141.965 338.145 142.371C338.585 142.743 339.499 143.133 340.887 143.539C343.934 144.453 345.457 146.044 345.457 148.312C345.457 149.701 344.966 150.919 343.984 151.969C343.003 152.984 341.699 153.661 340.074 154C336.824 154.677 332.051 155.016 325.754 155.016C319.762 155.016 315.208 154.491 312.094 153.441C309.318 152.493 307.93 150.852 307.93 148.516C307.93 146.755 308.945 145.181 310.977 143.793C311.958 143.15 312.635 142.574 313.008 142.066C313.38 141.525 313.634 140.797 313.77 139.883C314.311 136.802 314.582 131.098 314.582 122.77C314.582 121.246 314.413 120.163 314.074 119.52C313.736 118.842 313.059 118.301 312.043 117.895C309.639 116.947 308.438 115.576 308.438 113.781C308.438 112.156 309.267 110.768 310.926 109.617C312.585 108.432 315.361 107.264 319.254 106.113C324.467 104.556 328.902 103.76 332.559 103.727Z" fill="#E2FF00"/>
</g>
<defs>
<filter id="filter0_g_2007_6019" x="0.387149" y="0.848087" width="365.835" height="159.546" filterUnits="userSpaceOnUse" color-interpolation-filters="sRGB">
<feFlood flood-opacity="0" result="BackgroundImageFix"/>
<feBlend mode="normal" in="SourceGraphic" in2="BackgroundImageFix" result="shape"/>
<feTurbulence type="fractalNoise" baseFrequency="1.8125661611557007 1.8125661611557007" numOctaves="3" seed="6145" />
<feDisplacementMap in="shape" scale="8.8272638320922852" xChannelSelector="R" yChannelSelector="G" result="displacedImage" width="100%" height="100%" />
<feMerge result="effect1_texture_2007_6019">
<feMergeNode in="displacedImage"/>
</feMerge>
</filter>
</defs>
</svg>
