<svg width="18" height="16" viewBox="0 0 18 16" fill="none" xmlns="http://www.w3.org/2000/svg">
<path d="M2.77344 13.3336V2.66698C2.77344 1.78742 2.77344 1.34715 2.96624 1.08691C3.13452 0.859771 3.39389 0.710643 3.68184 0.67499C4.01165 0.634154 4.41615 0.841257 5.224 1.25487L15.6407 6.58821L15.6444 6.58982C16.5372 7.04692 16.9838 7.27557 17.1303 7.58033C17.2581 7.84619 17.2581 8.15308 17.1303 8.41894C16.9836 8.72413 16.536 8.95371 15.6407 9.4121L5.224 14.7454C4.41557 15.1593 4.01177 15.3657 3.68184 15.3248C3.39389 15.2891 3.13452 15.1401 2.96624 14.9129C2.77344 14.6527 2.77344 14.2132 2.77344 13.3336Z" fill="currentColor"/>
</svg>
