<svg width="24" height="24" viewBox="0 0 24 24" fill="none" xmlns="http://www.w3.org/2000/svg">
<path d="M12.0002 4C9.79111 4 8.00024 5.79086 8.00024 8C8.00024 10.2091 9.79111 12 12.0002 12C14.2094 12 16.0002 10.2091 16.0002 8C16.0002 5.79086 14.2094 4 12.0002 4ZM6.00024 8C6.00024 4.68629 8.68654 2 12.0002 2C15.314 2 18.0002 4.68629 18.0002 8C18.0002 11.3137 15.314 14 12.0002 14C8.68654 14 6.00024 11.3137 6.00024 8ZM8.00024 18C6.34339 18 5.00024 19.3431 5.00024 21C5.00024 21.5523 4.55253 22 4.00024 22C3.44796 22 3.00024 21.5523 3.00024 21C3.00024 18.2386 5.23882 16 8.00024 16H16.0002C18.7617 16 21.0002 18.2386 21.0002 21C21.0002 21.5523 20.5525 22 20.0002 22C19.448 22 19.0002 21.5523 19.0002 21C19.0002 19.3431 17.6571 18 16.0002 18H8.00024Z" fill="currentColor"/>
</svg>
