<svg width="25" height="24" viewBox="0 0 25 24" fill="none" xmlns="http://www.w3.org/2000/svg">
<path d="M17.4991 21.0002L7.49915 21M17.4991 21.0002L18.3022 21C19.4201 21 19.9791 21 20.4065 20.7822C20.7829 20.5905 21.0896 20.2843 21.2814 19.908C21.4991 19.4806 21.4991 18.921 21.4991 17.8031V9.21955C21.4991 8.77072 21.4991 8.54521 21.4513 8.33105C21.4086 8.14 21.3384 7.95652 21.2423 7.78595C21.1357 7.59674 20.9862 7.43055 20.6921 7.10378L17.9368 4.04241C17.596 3.66374 17.4233 3.47181 17.2159 3.33398C17.0294 3.21 16.8234 3.11858 16.6064 3.06287C16.3617 3 16.099 3 15.5742 3H6.69934C5.57924 3 5.01877 3 4.59094 3.21799C4.21462 3.40973 3.90888 3.71547 3.71713 4.0918C3.49915 4.51962 3.49915 5.08009 3.49915 6.2002V17.8002C3.49915 18.9203 3.49915 19.4796 3.71713 19.9074C3.90888 20.2837 4.21462 20.5905 4.59094 20.7822C5.01835 21 5.57814 21 6.69606 21H7.49915M17.4991 21.0002V17.1969C17.4991 16.079 17.4991 15.5192 17.2814 15.0918C17.0896 14.7155 16.7829 14.4097 16.4065 14.218C15.9787 14 15.4194 14 14.2993 14H10.6993C9.57924 14 9.01877 14 8.59094 14.218C8.21462 14.4097 7.90888 14.7155 7.71713 15.0918C7.49915 15.5196 7.49915 16.0801 7.49915 17.2002V21M15.4991 7H9.49915" stroke="#E2FF00" stroke-width="2" stroke-linecap="round" stroke-linejoin="round"/>
</svg>
