<svg width="20" height="21" viewBox="0 0 20 21" fill="none" xmlns="http://www.w3.org/2000/svg">
<path d="M9.41091 2.41058C9.73634 2.08514 10.264 2.08514 10.5894 2.41058L13.0894 4.91058C13.4149 5.23602 13.4149 5.76366 13.0894 6.08909C12.764 6.41453 12.2363 6.41453 11.9109 6.08909L10.8335 5.01168V12.9998C10.8335 13.4601 10.4604 13.8332 10.0002 13.8332C9.53993 13.8332 9.16683 13.4601 9.16683 12.9998V5.01168L8.08942 6.08909C7.76398 6.41453 7.23634 6.41453 6.91091 6.08909C6.58547 5.76366 6.58547 5.23602 6.91091 4.91058L9.41091 2.41058ZM3.3335 9.6665C3.3335 8.74603 4.07969 7.99984 5.00016 7.99984H6.66683C7.12707 7.99984 7.50016 8.37293 7.50016 8.83317C7.50016 9.29341 7.12707 9.6665 6.66683 9.6665H5.00016V17.1665H15.0002V9.6665H13.3335C12.8733 9.6665 12.5002 9.29341 12.5002 8.83317C12.5002 8.37293 12.8733 7.99984 13.3335 7.99984H15.0002C15.9206 7.99984 16.6668 8.74603 16.6668 9.6665V17.1665C16.6668 18.087 15.9206 18.8332 15.0002 18.8332H5.00016C4.07969 18.8332 3.3335 18.087 3.3335 17.1665V9.6665Z" fill="#B5B5B5"/>
</svg>
