<svg width="19" height="18" viewBox="0 0 19 18" fill="none" xmlns="http://www.w3.org/2000/svg">
<path d="M3.19071 10.3341C4.52529 11.6609 6.85276 13.4999 9.50075 13.4999C12.1487 13.4999 14.4758 11.6609 15.8103 10.3341C16.1623 9.9842 16.3389 9.80864 16.451 9.46509C16.5309 9.21996 16.5309 8.78005 16.451 8.53493C16.3389 8.19136 16.1623 8.01578 15.8103 7.66583C14.4758 6.33906 12.1487 4.5 9.50075 4.5C6.85276 4.5 4.52529 6.33906 3.19071 7.66583C2.83846 8.01602 2.66232 8.19124 2.55021 8.53493C2.47024 8.78005 2.47024 9.21996 2.55021 9.46509C2.66232 9.80878 2.83846 9.98392 3.19071 10.3341Z" stroke="#E8E8E8" stroke-width="1.5" stroke-linecap="round" stroke-linejoin="round"/>
<path d="M8.00061 9C8.00061 9.82843 8.67218 10.5 9.50061 10.5C10.329 10.5 11.0006 9.82843 11.0006 9C11.0006 8.17157 10.329 7.5 9.50061 7.5C8.67218 7.5 8.00061 8.17157 8.00061 9Z" stroke="#E8E8E8" stroke-width="1.5" stroke-linecap="round" stroke-linejoin="round"/>
</svg>
