<svg width="24" height="24" viewBox="0 0 24 24" fill="none" xmlns="http://www.w3.org/2000/svg">
<path d="M12.0002 4C12.5525 4 13.0002 4.44772 13.0002 5V19C13.0002 19.5523 12.5525 20 12.0002 20C11.448 20 11.0002 19.5523 11.0002 19V5C11.0002 4.44772 11.448 4 12.0002 4ZM17.0002 8C17.5525 8 18.0002 8.44772 18.0002 9V19C18.0002 19.5523 17.5525 20 17.0002 20C16.448 20 16.0002 19.5523 16.0002 19V9C16.0002 8.44772 16.448 8 17.0002 8ZM7.00024 12C7.55253 12 8.00024 12.4477 8.00024 13V19C8.00024 19.5523 7.55253 20 7.00024 20C6.44796 20 6.00024 19.5523 6.00024 19V13C6.00024 12.4477 6.44796 12 7.00024 12Z" fill="currentColor"/>
</svg>
