<svg width="20" height="20" viewBox="0 0 20 20" fill="none" xmlns="http://www.w3.org/2000/svg">
<g clip-path="url(#clip0_2241_7381)">
<rect width="20" height="20" rx="10" fill="#FF3358"/>
<path d="M10 12C9.44772 12 9 11.5523 9 11L9 5C9 4.44772 9.44772 4 10 4C10.5523 4 11 4.44772 11 5L11 11C11 11.5523 10.5523 12 10 12Z" fill="white"/>
<path d="M8.5 14.5C8.5 13.6716 9.17157 13 10 13C10.8284 13 11.5 13.6716 11.5 14.5C11.5 15.3284 10.8284 16 10 16C9.17157 16 8.5 15.3284 8.5 14.5Z" fill="white"/>
</g>
<defs>
<clipPath id="clip0_2241_7381">
<rect width="20" height="20" rx="10" fill="white"/>
</clipPath>
</defs>
</svg>
