<svg width="137" height="38" viewBox="0 0 137 38" fill="none" xmlns="http://www.w3.org/2000/svg">
<g filter="url(#filter0_g_2007_6047)">
<path d="M14.166 4.67383H25.4883C26.7057 4.63086 27.8158 4.46615 28.8184 4.17969C29.248 4.0651 29.6276 4.00781 29.957 4.00781C31.1172 4.00781 32.2415 4.86719 33.3301 6.58594C34.4329 8.30469 34.9844 10.0736 34.9844 11.8926C34.9844 13.1387 34.6048 14.0482 33.8457 14.6211C33.2728 15.0508 32.5853 15.2656 31.7832 15.2656C31.0241 15.2656 30.3652 15.0579 29.8066 14.6426C29.248 14.2129 28.6966 13.5111 28.1523 12.5371C27.6797 11.6491 27.3073 11.069 27.0352 10.7969C26.763 10.5247 26.4336 10.3887 26.0469 10.3887C25.5169 10.3887 25.1374 10.6107 24.9082 11.0547C24.679 11.4987 24.5645 12.2292 24.5645 13.2461V25.2773C24.5645 26.5091 24.6934 27.4043 24.9512 27.9629C25.209 28.5215 25.696 28.9512 26.4121 29.252C27.1855 29.5814 27.7083 29.8965 27.9805 30.1973C28.2669 30.4837 28.4102 30.8848 28.4102 31.4004C28.4102 32.4316 27.7083 33.1979 26.3047 33.6992C24.9154 34.2005 22.7741 34.4512 19.8809 34.4512C16.3288 34.4512 13.6934 34.1576 11.9746 33.5703C10.528 33.0833 9.80469 32.2956 9.80469 31.207C9.80469 30.6198 10.0625 30.1615 10.5781 29.832C10.707 29.7604 11.2155 29.5885 12.1035 29.3164C12.6478 29.1589 13.0202 28.8581 13.2207 28.4141C13.4355 27.9701 13.6074 27.1178 13.7363 25.8574C13.8509 24.7402 13.9583 22.9355 14.0586 20.4434C14.1589 17.9368 14.209 15.7669 14.209 13.9336C14.209 12.6445 14.1087 11.7279 13.9082 11.1836C13.7077 10.6393 13.3783 10.3672 12.9199 10.3672C12.3613 10.3672 11.8171 10.7682 11.2871 11.5703C10.3275 13.0312 9.53971 13.998 8.92383 14.4707C8.19336 15.0293 7.48438 15.3086 6.79688 15.3086C6.02344 15.3086 5.38607 15.0221 4.88477 14.4492C4.38346 13.862 4.13281 13.1172 4.13281 12.2148C4.13281 11.3268 4.33333 10.3529 4.73438 9.29297C5.13542 8.21875 5.67253 7.23047 6.3457 6.32812C7.43424 4.86719 8.50846 4.13672 9.56836 4.13672C9.85482 4.13672 10.1842 4.17969 10.5566 4.26562C11.3301 4.42318 11.9603 4.5306 12.4473 4.58789C12.9486 4.64518 13.5215 4.67383 14.166 4.67383ZM42.1348 12.5801C44.7559 12.5801 47.0547 13.2604 49.0312 14.6211C50.4492 15.5951 51.5879 16.8626 52.4473 18.4238C53.3353 20.0566 53.7793 21.7611 53.7793 23.5371C53.7793 26.6452 52.3542 29.2878 49.5039 31.4648C46.7826 33.5417 43.6673 34.5801 40.1582 34.5801C36.735 34.5801 33.9635 33.6061 31.8438 31.6582C29.7812 29.7676 28.75 27.304 28.75 24.2676C28.75 20.8874 30.0104 18.123 32.5312 15.9746C35.1667 13.7116 38.3678 12.5801 42.1348 12.5801ZM40.416 17.543C39.7858 17.543 39.2773 17.7793 38.8906 18.252C38.5182 18.7103 38.332 19.3262 38.332 20.0996C38.332 20.959 38.4896 22.1335 38.8047 23.623C39.1341 25.0983 39.5208 26.4089 39.9648 27.5547C40.4089 28.7292 41.1322 29.3164 42.1348 29.3164C43.4095 29.3164 44.0469 28.5072 44.0469 26.8887C44.0469 25.6855 43.8822 24.3177 43.5527 22.7852C43.2376 21.2526 42.8509 20.0065 42.3926 19.0469C41.9199 18.0729 41.2611 17.5716 40.416 17.543ZM63.1211 13.8262V25.4707C63.1211 27.9629 63.9447 29.209 65.5918 29.209C66.0072 29.209 66.4154 29.0944 66.8164 28.8652C67.2174 28.6217 67.4967 28.3281 67.6543 27.9844C67.9694 27.2969 68.127 25.7643 68.127 23.3867C68.127 21.0378 68.0482 19.4336 67.8906 18.5742C67.8333 18.2161 67.7331 17.9583 67.5898 17.8008C67.4466 17.6289 67.1745 17.4355 66.7734 17.2207C65.957 16.791 65.5488 16.2467 65.5488 15.5879C65.5488 14.6999 66.2507 14.084 67.6543 13.7402C70.3184 13.0814 72.9466 12.752 75.5391 12.752C76.9857 12.752 77.709 13.5182 77.709 15.0508C77.709 15.2083 77.7018 15.5306 77.6875 16.0176C77.6589 16.7051 77.6374 17.543 77.623 18.5312V28.0059C77.623 28.4928 78.0384 28.9368 78.8691 29.3379C79.571 29.6816 79.9219 30.1829 79.9219 30.8418C79.9219 32.1309 78.3965 33.1263 75.3457 33.8281C73.5553 34.2435 71.8223 34.4512 70.1465 34.4512C69.459 34.4512 68.9863 34.3724 68.7285 34.2148C68.485 34.0573 68.3418 33.7493 68.2988 33.291C68.2272 32.403 67.9551 31.959 67.4824 31.959C67.3105 31.959 67.153 32.002 67.0098 32.0879C66.8665 32.1595 66.4297 32.446 65.6992 32.9473C64.2526 33.9355 62.6986 34.4297 61.0371 34.4297C58.2871 34.4297 56.3464 33.6348 55.2148 32.0449C54.2552 30.7129 53.7754 28.4714 53.7754 25.3203C53.7754 24.1458 53.7826 23.1432 53.7969 22.3125C53.7969 21.8255 53.7969 21.4961 53.7969 21.3242C53.7969 20.0924 53.6823 19.1901 53.4531 18.6172C53.2383 18.0299 52.8372 17.5716 52.25 17.2422C51.6914 16.9557 51.3333 16.7266 51.1758 16.5547C51.0326 16.3828 50.9609 16.1465 50.9609 15.8457C50.9609 14.7572 51.7845 14.0339 53.4316 13.6758C56.2389 13.0599 59.0462 12.752 61.8535 12.752C62.6986 12.752 63.1211 13.11 63.1211 13.8262ZM89.4141 12.6016C91.9635 12.6016 94.2122 13.2389 96.1602 14.5137C98.0078 15.7311 98.9316 17.2422 98.9316 19.0469C98.9316 20.293 98.502 21.3027 97.6426 22.0762C96.8405 22.8066 95.8737 23.1719 94.7422 23.1719C93.5534 23.1719 92.6582 22.7422 92.0566 21.8828C91.8704 21.6107 91.5983 20.916 91.2402 19.7988C90.8535 18.5957 90.1159 17.9941 89.0273 17.9941C88.2396 17.9941 87.5736 18.3379 87.0293 19.0254C86.4993 19.7129 86.2344 20.5579 86.2344 21.5605C86.2344 23.2793 86.8503 24.8047 88.082 26.1367C89.0846 27.2109 90.3451 27.748 91.8633 27.748C92.5794 27.748 93.181 27.6908 93.668 27.5762C94.1549 27.4473 94.7923 27.1966 95.5801 26.8242C95.7806 26.724 96.0026 26.6738 96.2461 26.6738C96.7331 26.6738 97.1628 26.903 97.5352 27.3613C97.9076 27.8197 98.0938 28.3568 98.0938 28.9727C98.0938 29.6172 97.8288 30.2975 97.2988 31.0137C96.7689 31.7155 96.0742 32.3314 95.2148 32.8613C93.3529 34.0072 91.1543 34.5801 88.6191 34.5801C85.6686 34.5801 83.1549 33.7207 81.0781 32.002C78.4141 29.8249 77.082 27.0534 77.082 23.6875C77.082 20.4505 78.321 17.7721 80.7988 15.6523C83.1621 13.6185 86.0339 12.6016 89.4141 12.6016ZM108.188 5.72656L107.908 14.7285C107.88 15.8027 108.209 16.3398 108.896 16.3398C109.24 16.3398 109.577 16.1035 109.906 15.6309C111.296 13.6113 113.15 12.6016 115.471 12.6016C117.748 12.6016 119.56 13.2962 120.906 14.6855C121.508 15.3014 121.93 16.0319 122.174 16.877C122.432 17.722 122.575 18.9323 122.604 20.5078L122.797 28.2637C122.811 28.9368 122.897 29.431 123.055 29.7461C123.227 30.0612 123.613 30.4551 124.215 30.9277C124.63 31.2572 124.838 31.651 124.838 32.1094C124.838 33.6562 122.503 34.4297 117.834 34.4297C113.68 34.4297 111.604 33.7064 111.604 32.2598C111.604 32.0163 111.639 31.8301 111.711 31.7012C111.783 31.5723 112.033 31.2285 112.463 30.6699C113.064 29.8822 113.365 27.9128 113.365 24.7617C113.365 22.8568 113.186 21.4674 112.828 20.5938C112.355 19.4049 111.51 18.8105 110.293 18.8105C109.419 18.8105 108.775 19.1257 108.359 19.7559C108.059 20.2142 107.908 21.0736 107.908 22.334V26.4805C108.008 28.3138 108.094 29.3522 108.166 29.5957C108.238 29.8392 108.567 30.2904 109.154 30.9492C109.426 31.25 109.562 31.6009 109.562 32.002C109.562 33.6204 107.457 34.4297 103.246 34.4297C98.319 34.4297 95.8555 33.5918 95.8555 31.916C95.8555 31.5293 95.9342 31.2357 96.0918 31.0352C96.2493 30.8203 96.6361 30.498 97.252 30.0684C97.7962 29.6816 98.1686 28.6432 98.3691 26.9531C98.584 25.2487 98.6914 22.4342 98.6914 18.5098C98.6914 15.4303 98.6055 13.2962 98.4336 12.1074C98.3763 11.6634 98.2689 11.3411 98.1113 11.1406C97.9681 10.9258 97.6888 10.7109 97.2734 10.4961C96.3854 10.0378 95.9414 9.50781 95.9414 8.90625C95.9414 8.1901 96.278 7.61003 96.9512 7.16602C97.6243 6.72201 98.9134 6.24219 100.818 5.72656C103.396 5.01042 105.452 4.65234 106.984 4.65234C107.815 4.65234 108.216 5.01042 108.188 5.72656ZM128.186 25.2773C129.432 25.2773 130.499 25.7428 131.387 26.6738C132.275 27.5905 132.719 28.6647 132.719 29.8965C132.719 31.1712 132.26 32.2741 131.344 33.2051C130.427 34.1217 129.331 34.5801 128.057 34.5801C126.811 34.5801 125.743 34.1576 124.855 33.3125C123.896 32.3958 123.416 31.2643 123.416 29.918C123.416 28.6719 123.839 27.6191 124.684 26.7598C125.629 25.7715 126.796 25.2773 128.186 25.2773ZM128.078 4.97461C129.353 4.97461 130.434 5.43294 131.322 6.34961C132.511 7.55273 133.105 9.25716 133.105 11.4629C133.105 12.9238 132.848 14.4993 132.332 16.1895C131.831 17.8652 131.158 19.362 130.312 20.6797C129.353 22.1693 128.579 22.9141 127.992 22.9141C127.419 22.9141 126.61 21.9616 125.564 20.0566C124.791 18.653 124.175 17.1491 123.717 15.5449C123.273 13.9408 123.051 12.4727 123.051 11.1406C123.051 9.50781 123.416 8.13997 124.146 7.03711C125.049 5.66211 126.359 4.97461 128.078 4.97461Z" fill="#E2FF00"/>
</g>
<defs>
<filter id="filter0_g_2007_6047" x="0.722812" y="0.597812" width="135.793" height="37.3923" filterUnits="userSpaceOnUse" color-interpolation-filters="sRGB">
<feFlood flood-opacity="0" result="BackgroundImageFix"/>
<feBlend mode="normal" in="SourceGraphic" in2="BackgroundImageFix" result="shape"/>
<feTurbulence type="fractalNoise" baseFrequency="1.8125661611557007 1.8125661611557007" numOctaves="3" seed="6145" />
<feDisplacementMap in="shape" scale="6.820000171661377" xChannelSelector="R" yChannelSelector="G" result="displacedImage" width="100%" height="100%" />
<feMerge result="effect1_texture_2007_6047">
<feMergeNode in="displacedImage"/>
</feMerge>
</filter>
</defs>
</svg>
