<svg width="17" height="17" viewBox="0 0 17 17" fill="none" xmlns="http://www.w3.org/2000/svg">
<path d="M8.5 3.16683C7.02724 3.16683 5.83333 4.36074 5.83333 5.8335C5.83333 7.30626 7.02724 8.50016 8.5 8.50016C9.97276 8.50016 11.1667 7.30626 11.1667 5.8335C11.1667 4.36074 9.97276 3.16683 8.5 3.16683ZM4.5 5.8335C4.5 3.62436 6.29086 1.8335 8.5 1.8335C10.7091 1.8335 12.5 3.62436 12.5 5.8335C12.5 8.04263 10.7091 9.8335 8.5 9.8335C6.29086 9.8335 4.5 8.04263 4.5 5.8335ZM5.83333 12.5002C4.72876 12.5002 3.83333 13.3956 3.83333 14.5002C3.83333 14.8684 3.53486 15.1668 3.16667 15.1668C2.79848 15.1668 2.5 14.8684 2.5 14.5002C2.5 12.6592 3.99239 11.1668 5.83333 11.1668H11.1667C13.0076 11.1668 14.5 12.6592 14.5 14.5002C14.5 14.8684 14.2015 15.1668 13.8333 15.1668C13.4651 15.1668 13.1667 14.8684 13.1667 14.5002C13.1667 13.3956 12.2712 12.5002 11.1667 12.5002H5.83333Z" fill="currentColor"/>
</svg>
