<svg width="14" height="15" viewBox="0 0 14 15" fill="none" xmlns="http://www.w3.org/2000/svg">
<path d="M7 2.83366C5.71134 2.83366 4.66667 3.87833 4.66667 5.16699C4.66667 6.45566 5.71134 7.50033 7 7.50033C8.28866 7.50033 9.33333 6.45566 9.33333 5.16699C9.33333 3.87833 8.28866 2.83366 7 2.83366ZM3.5 5.16699C3.5 3.234 5.067 1.66699 7 1.66699C8.933 1.66699 10.5 3.234 10.5 5.16699C10.5 7.09999 8.933 8.66699 7 8.66699C5.067 8.66699 3.5 7.09999 3.5 5.16699ZM4.66667 11.0003C3.70017 11.0003 2.91667 11.7838 2.91667 12.7503C2.91667 13.0725 2.6555 13.3337 2.33333 13.3337C2.01117 13.3337 1.75 13.0725 1.75 12.7503C1.75 11.1395 3.05584 9.83366 4.66667 9.83366H9.33333C10.9442 9.83366 12.25 11.1395 12.25 12.7503C12.25 13.0725 11.9888 13.3337 11.6667 13.3337C11.3445 13.3337 11.0833 13.0725 11.0833 12.7503C11.0833 11.7838 10.2998 11.0003 9.33333 11.0003H4.66667Z" fill="#676767"/>
</svg>
