<svg width="19" height="18" viewBox="0 0 19 18" fill="none" xmlns="http://www.w3.org/2000/svg">
<path d="M14.615 3.51465C15.3643 4.21341 15.9625 5.0583 16.3727 5.99718C16.7829 6.93607 16.9964 7.94905 17 8.97362C17.0035 9.99819 16.7971 11.0126 16.3935 11.9544C15.9899 12.8961 15.3976 13.7451 14.6532 14.4491M12.569 5.70871C13.0186 6.12797 13.3775 6.6349 13.6236 7.19823C13.8697 7.76156 13.9978 8.36935 14 8.98409C14.0021 9.59884 13.8783 10.2075 13.6361 10.7725C13.3939 11.3376 13.0386 11.847 12.5919 12.2694M6.11022 11.555L7.36665 13.1098C8.02162 13.9203 8.3491 14.3256 8.63602 14.3697C8.88439 14.4079 9.13539 14.3191 9.30457 14.1333C9.5 13.9187 9.5 13.3976 9.5 12.3556V5.64405C9.5 4.60196 9.5 4.08092 9.30457 3.86627C9.13539 3.68046 8.88439 3.59173 8.63602 3.62992C8.3491 3.67403 8.02162 4.0793 7.36665 4.88982L6.11022 6.44465C5.97791 6.60839 5.91175 6.69026 5.82989 6.74917C5.75737 6.80137 5.6761 6.84018 5.58992 6.86378C5.49265 6.89043 5.38739 6.89043 5.17687 6.89043H4.10937C3.54222 6.89043 3.25865 6.89043 3.02948 6.96613C2.57848 7.11512 2.2247 7.46891 2.07571 7.9199C2 8.14907 2 8.43265 2 8.9998C2 9.56695 2 9.85053 2.07571 10.0797C2.2247 10.5307 2.57848 10.8845 3.02948 11.0335C3.25865 11.1092 3.54222 11.1092 4.10937 11.1092H5.17687C5.38739 11.1092 5.49265 11.1092 5.58992 11.1358C5.6761 11.1594 5.75737 11.1982 5.82989 11.2504C5.91175 11.3093 5.97791 11.3912 6.11022 11.555Z" stroke="#E2FF00" stroke-linecap="round" stroke-linejoin="round"/>
</svg>
